<?xml version="1.0" encoding="UTF-8" standalone="no"?>
<!DOCTYPE svg PUBLIC "-//W3C//DTD SVG 1.1//EN" "http://www.w3.org/Graphics/SVG/1.1/DTD/svg11.dtd">
<svg width="100%" height="100%" viewBox="0 0 2000 2000" version="1.1" xmlns="http://www.w3.org/2000/svg" xmlns:xlink="http://www.w3.org/1999/xlink" xml:space="preserve" xmlns:serif="http://www.serif.com/" style="fill-rule:evenodd;clip-rule:evenodd;stroke-miterlimit:5;">
    <g transform="matrix(1,0,0,1,-3550,0)">
        <g id="画板2" transform="matrix(0.666667,0,0,1,1516.666667,0)">
            <rect x="3050" y="0" width="3000" height="2000" style="fill:none;"/>
            <clipPath id="_clip1">
                <rect x="3050" y="0" width="3000" height="2000"/>
            </clipPath>
            <g clip-path="url(#_clip1)">
                <g transform="matrix(1.294479,0,0,1.294479,-1339.877301,-453.436851)">
                    <g transform="matrix(6.035249,0,0,4.023499,3391.232227,350.28534)">
                        <clipPath id="_clip2">
                            <path d="M160.589,0L223.411,0C276.269,0 297.659,5.941 318.518,17.097C339.377,28.252 355.748,44.623 366.903,65.482C378.059,86.341 384,107.731 384,160.589L384,223.411C384,276.269 378.059,297.659 366.903,318.518C355.748,339.377 339.377,355.748 318.518,366.904C297.659,378.059 276.269,384 223.411,384L160.589,384C107.731,384 86.341,378.059 65.482,366.904C44.623,355.748 28.252,339.377 17.096,318.518C5.941,297.659 0,276.269 0,223.411L0,160.589C0,107.731 5.941,86.341 17.096,65.482C28.252,44.623 44.623,28.252 65.482,17.097C86.341,5.941 107.731,0 160.589,0Z"/>
                        </clipPath>
                        <g clip-path="url(#_clip2)">
                            <g>
                                <g>
                                    <rect x="-1" y="-1" width="386" height="386" style="fill:rgb(75,0,125);"/>
                                    <g transform="matrix(1,0,0,-1,0,384)">
                                        <path d="M160.589,384L223.411,384C276.269,384 297.659,378.059 318.518,366.904C339.377,355.748 355.748,339.377 366.903,318.518C378.059,297.659 384,276.269 384,223.411L384,160.589C384,107.731 378.059,86.341 366.903,65.482C355.748,44.623 339.377,28.252 318.518,17.097C297.659,5.941 276.269,0 223.411,0L160.589,0C107.731,0 86.341,5.941 65.482,17.097C44.623,28.252 28.252,44.623 17.096,65.482C5.941,86.341 0,107.731 0,160.589L0,223.411C0,276.269 5.941,297.659 17.096,318.518C28.252,339.377 44.623,355.748 65.482,366.904C86.341,378.059 107.731,384 160.589,384Z" style="fill:rgb(75,0,125);fill-rule:nonzero;stroke:rgb(168,168,168);stroke-width:0.38px;"/>
                                    </g>
                                </g>
                            </g>
                        </g>
                    </g>
                    <g transform="matrix(3.41026,0,0,3.41026,-9979.410849,-1790.307214)">
                        <g transform="matrix(1.06697,0,0,0.711313,-626.107607,199.78249)">
                            <path d="M4504.685,879.341C4529.695,879.341 4550,899.647 4550,924.657C4550,949.667 4529.695,969.972 4504.685,969.972C4479.674,969.972 4459.369,949.667 4459.369,924.657C4459.369,899.647 4479.674,879.341 4504.685,879.341ZM4504.685,901.999C4517.19,901.999 4527.342,912.152 4527.342,924.657C4527.342,937.162 4517.19,947.315 4504.685,947.315C4492.179,947.315 4482.027,937.162 4482.027,924.657C4482.027,912.152 4492.179,901.999 4504.685,901.999Z" style="fill:white;"/>
                        </g>
                        <g transform="matrix(1.06697,0,0,0.711313,-468.546678,199.78249)">
                            <path d="M4504.685,879.341C4529.695,879.341 4550,899.647 4550,924.657C4550,949.667 4529.695,969.972 4504.685,969.972C4479.674,969.972 4459.369,949.667 4459.369,924.657C4459.369,899.647 4479.674,879.341 4504.685,879.341ZM4504.685,901.999C4517.19,901.999 4527.342,912.152 4527.342,924.657C4527.342,937.162 4517.19,947.315 4504.685,947.315C4492.179,947.315 4482.027,937.162 4482.027,924.657C4482.027,912.152 4492.179,901.999 4504.685,901.999Z" style="fill:white;"/>
                        </g>
                        <g transform="matrix(2.035029,0,0,0.571508,-4559.840832,443.398345)">
                            <path d="M4334.258,590L4476.517,639.5L4334.258,689L4192,639.5L4334.258,590Z" style="fill:white;"/>
                        </g>
                        <g transform="matrix(1.5,0,0,1,-2275,0)">
                            <path d="M4408.544,791.348L4303.503,791.348L4329.763,746L4382.283,746L4408.544,791.348Z" style="fill:white;"/>
                        </g>
                    </g>
                    <g transform="matrix(6.27486,0,0,1.377518,-22964.939078,-396.728906)">
                        <path d="M4278.797,1362.228C4278.797,1368.076 4275.852,1371 4269.964,1371L4239.477,1371C4233.67,1371 4230.766,1368.076 4230.766,1362.228L4230.766,1275L4245.12,1275L4245.12,1358.67L4264.443,1358.67L4264.443,1275L4278.797,1275L4278.797,1362.228Z" style="fill:white;fill-rule:nonzero;"/>
                        <rect x="4290.574" y="1275" width="14.354" height="96" style="fill:white;fill-rule:nonzero;"/>
                        <path d="M4365.35,1371L4352.775,1371L4329.772,1310.578C4330.385,1313.523 4330.692,1315.833 4330.692,1317.51L4330.692,1371L4316.706,1371L4316.706,1275L4329.281,1275L4352.284,1334.195C4351.671,1331.25 4351.364,1328.94 4351.364,1327.263L4351.364,1275L4365.35,1275L4365.35,1371Z" style="fill:white;fill-rule:nonzero;"/>
                        <path d="M4422.889,1362.228C4422.889,1368.076 4419.985,1371 4414.178,1371L4385.286,1371C4379.52,1371 4376.637,1368.076 4376.637,1362.228L4376.637,1339.348L4390.991,1339.348L4390.991,1358.916L4408.535,1358.916L4408.535,1340.084L4379.765,1312.848C4377.68,1310.844 4376.637,1308.288 4376.637,1305.18L4376.637,1283.833C4376.637,1277.944 4379.52,1275 4385.286,1275L4414.178,1275C4419.985,1275 4422.889,1277.904 4422.889,1283.711L4422.889,1305.18L4408.535,1305.18L4408.535,1287.084L4390.991,1287.084L4390.991,1304.444L4419.76,1331.557C4421.846,1333.52 4422.889,1336.117 4422.889,1339.348L4422.889,1362.228Z" style="fill:white;fill-rule:nonzero;"/>
                        <path d="M4480.673,1327.263C4480.673,1333.234 4477.749,1336.219 4471.901,1336.219L4448.652,1336.219L4448.652,1371L4434.298,1371L4434.298,1275L4471.901,1275C4477.749,1275 4480.673,1277.944 4480.673,1283.833L4480.673,1327.263ZM4466.196,1323.889L4466.196,1287.33L4448.652,1287.33L4448.652,1323.889L4466.196,1323.889Z" style="fill:white;fill-rule:nonzero;"/>
                        <path d="M4539.132,1275.552L4526.434,1315.67C4524.88,1319.636 4522.774,1326.323 4520.116,1335.728L4520.116,1371L4505.7,1371L4505.7,1335.728C4505.046,1332.539 4504.105,1329.165 4502.879,1325.607C4500.711,1319.514 4499.546,1316.201 4499.382,1315.67L4486.746,1275.552C4486.705,1275.511 4486.705,1275.327 4486.746,1275L4501.529,1275L4513,1316.712L4524.41,1275L4539.132,1275L4539.132,1275.552Z" style="fill:white;fill-rule:nonzero;"/>
                    </g>
                </g>
            </g>
        </g>
    </g>
</svg>
